<svg width="512" height="512" viewBox="0 0 512 512" fill="none" xmlns="http://www.w3.org/2000/svg">
  <path d="M256 32c38 0 75 15 113 45 7 5 15 2 19-5 10-20 25-34 44-41-8 32-4 58 12 78 43 53 68 114 68 181 0 150-114 220-256 220S0 440 0 290c0-67 25-128 68-181 16-20 20-46 12-78 19 7 34 21 44 41 4 7 12 10 19 5 38-30 75-45 113-45z" stroke="#FFB4B4" stroke-width="28" fill="none"/>
  <circle cx="256" cy="290" r="170" fill="#B00000"/>
  <path d="M180 250c40-30 60-30 100 0 -10 50-90 50-100 0z" fill="#000"/>
  <path d="M332 250c-40-30-60-30-100 0 10 50 90 50 100 0z" fill="#000"/>
  <path d="M170 330c60 60 120 60 180 0 -15 80-165 80-180 0z" fill="#000"/>
  <polygon points="240,330 255,370 270,330" fill="#FFF"/>
  <polygon points="300,330 315,370 330,330" fill="#FFF"/>
</svg>